<svg width="266" height="201" viewBox="0 0 266 201" fill="none" xmlns="http://www.w3.org/2000/svg">
    <path d="M140.5 186.214C136.214 189.5 150.643 201.643 115.214 188.857C79.8571 176.071 65.4286 131.5 58.2143 106.929C51 82.3572 70.3571 48.9286 83.1429 39.4286C95.9286 29.9286 119.5 26 122.143 25.6429C124.714 25.3572 128.357 23.7143 134.571 17.5C140.786 11.2857 160.429 4.7143 174.571 7.64288C188.643 10.5714 223.714 44 246.929 91.2143C270.214 138.357 238.786 172.143 233.214 172.143C227.643 172.143 195.5 150.5 192.571 147.857C189.643 145.286 182.429 144.571 177.143 142.643C171.929 140.643 159.786 126.286 159.786 126.286C161.786 162.286 144.714 182.929 140.5 186.214Z" fill="#EAB363"/>
    <path d="M126.714 190.786C119.143 190.786 99.5 177.071 78.5714 148.214C57.5714 119.357 63.5 79.0715 63.5 79.0715C59.5714 140.357 131 187.857 131 187.857C131 187.857 134.214 190.786 126.714 190.786Z" fill="#8C5E28"/>
    <path d="M177.143 142.643C171.929 140.643 159.786 126.286 159.786 126.286C159.786 126.286 154.214 67.2858 159.786 41.4286C165.357 15.5 168.286 15.2143 172.214 23.7143C175.786 31.3572 176.929 114.143 189.286 146.071C185.786 144.786 180.929 144.071 177.143 142.643Z" fill="#E2942D"/>
    <path d="M121.143 27.6429C121.143 27.6429 110 36.7857 107.714 37.5C105.429 38.1429 79.5 51.5715 72.3571 65.6429C65.1429 79.7143 69.7143 58.1429 77.2143 50.5715C84.7857 43.0715 103.429 29.5715 121.143 27.6429Z" fill="#8C5E28"/>
    <path d="M114.071 174.571C69.9286 198.5 17.6429 198.714 17.6429 198.714C23.5 183.929 6.57143 158.857 6.57143 158.857C55.2143 164 87.2143 146.071 87.2143 146.071C88.3572 147.571 114.071 174.571 114.071 174.571Z" fill="#E6E6E6"/>
    <path opacity="0.1" d="M114.071 174.571C100.571 181.857 86.3571 186.929 73.0714 190.5C68.2143 173.143 56.9286 163.286 47.8571 158C72.5 154.286 87.2143 146.071 87.2143 146.071C88.3571 147.571 114.071 174.571 114.071 174.571Z" fill="black"/>
    <path d="M140.214 33.6429C133.286 46.8572 114.857 38.8572 119 38.6429C123.143 38.4286 135.571 21.3572 143.857 15.6429C152.214 9.92858 174.571 7.64286 177.071 11.2143C179.643 14.7857 172.5 15.3572 164.214 15.6429C155.857 15.8572 150.357 57.7857 150.357 57.7857C135.143 49.9286 147.143 20.4286 140.214 33.6429Z" fill="#F4CD9A"/>
</svg>