<svg width="301" height="200" viewBox="0 0 301 200" fill="none" xmlns="http://www.w3.org/2000/svg">
    <path d="M193.014 43.1282C193.014 43.1282 223.16 68.7375 250.818 91.4932C278.476 114.249 300.427 116.151 300.5 121.639C300.5 127.054 293.11 129.688 265.598 131.297C238.013 132.834 200.77 155.956 173.844 151.2C173.844 151.2 154.454 123.468 150.356 104.956C146.186 86.3713 193.014 43.1282 193.014 43.1282Z" fill="#EAB363"/>
    <path d="M173.844 151.2C173.844 151.2 154.454 123.468 150.356 104.956C146.186 86.3713 193.014 43.1282 193.014 43.1282C193.014 43.1282 194.477 44.3721 197.038 46.494C194.185 64.8595 184.892 124.346 177.575 151.712C176.307 151.565 175.063 151.395 173.844 151.2Z" fill="#FFD399"/>
    <path d="M170.331 134.736C170.331 134.736 157.527 106.2 159.502 98.1516C161.405 90.0298 189.282 55.8596 189.282 55.8596C189.721 64.5668 170.331 134.736 170.331 134.736Z" fill="#8C5E28"/>
    <path d="M133.6 101.371C133.6 101.371 144.21 108.615 143.405 111.761C142.6 114.981 136.015 116.81 136.015 116.81C136.015 116.81 129.43 121.493 127.235 121.493C125.04 121.493 122.698 116.078 122.698 116.078L119.918 101.371H133.6Z" fill="#FFD399"/>
    <path d="M122.698 132.249C122.698 132.249 122.552 138.614 104.552 142.419C86.5524 146.151 38.4801 152.004 16.3097 156.98C-5.86065 161.955 -0.226596 138.175 6.43183 131.444C13.0903 124.712 37.0167 73.4935 44.0409 61.7863C51.0652 50.1524 62.4065 44.7379 62.4065 44.7379C87.3573 52.128 122.698 132.249 122.698 132.249Z" fill="#EAB363"/>
    <path d="M122.698 132.249C122.698 132.249 122.698 133.273 121.454 134.809C104.698 124.712 66.9428 60.9083 61.382 53.5182C59.4064 50.8109 59.26 48.3232 59.9917 46.1281C61.5283 45.1769 62.4063 44.7379 62.4063 44.7379C87.3571 52.128 122.698 132.249 122.698 132.249Z" fill="#FFD399"/>
    <path d="M127.893 121.42C127.649 121.468 127.43 121.493 127.235 121.493C125.04 121.493 122.698 116.078 122.698 116.078L119.918 101.371H133.6C133.6 101.371 140.259 105.908 142.6 109.347L126.064 111.615L127.893 121.42Z" fill="#EAB363"/>
    <path d="M153.21 136.712C153.21 136.712 147.868 146.956 142.015 146.004C136.161 145.053 133.6 132.834 133.6 132.834C145.673 130.858 153.21 136.712 153.21 136.712Z" fill="#EAB363"/>
    <path d="M137.332 142.346C134.771 138.395 133.6 132.834 133.6 132.834C139.966 131.81 145.088 132.98 148.527 134.297C145.82 137.078 140.844 140.297 137.332 142.346Z" fill="#FFD399"/>
    <path d="M64.4553 71.2984C65.9187 76.0544 60.0651 77.2251 50.2604 78.469C40.5289 79.6397 35.6265 87.4689 40.0167 78.469C44.4068 69.396 54.2116 57.5425 54.2116 57.5425C54.2116 57.5425 62.9919 66.4692 64.4553 71.2984Z" fill="#F4CD9A"/>
    <path d="M202.453 57.5425C202.453 57.5425 226.891 81.3958 231.282 82.7128C235.672 84.0299 226.891 94.3468 219.575 90.6883C212.258 86.9567 197.038 87.4689 197.038 87.4689L202.453 57.5425Z" fill="#F4CD9A"/>
</svg>